<svg fill="#FFFFFF" xmlns="http://www.w3.org/2000/svg"  viewBox="0 0 30 30" width="30px" height="30px"><path d="M 15 3 C 13.343 3 12 4.343 12 6 C 12 7.657 13.343 9 15 9 C 16.657 9 18 7.657 18 6 C 18 4.343 16.657 3 15 3 z M 14 10.863281 C 13.348 10.955281 12.703844 11.128391 12.089844 11.400391 L 3.8691406 15.052734 C 2.7091406 15.568734 2.7091406 17.214469 3.8691406 17.730469 L 12.089844 21.382812 C 13.942844 22.205813 16.057156 22.205813 17.910156 21.382812 L 26.130859 17.730469 C 27.290859 17.214469 27.290859 15.568734 26.130859 15.052734 L 17.910156 11.400391 C 17.296156 11.127391 16.653 10.955281 16 10.863281 L 16 16.25 C 16 16.664 15.552 17 15 17 C 14.448 17 14 16.664 14 16.25 L 14 10.863281 z M 7.7226562 15.400391 C 8.6686562 15.400391 9.4355469 15.838906 9.4355469 16.378906 C 9.4355469 16.918906 8.6696562 17.355469 7.7226562 17.355469 C 6.7766563 17.355469 6.0097656 16.918906 6.0097656 16.378906 C 6.0097656 15.838906 6.7766562 15.400391 7.7226562 15.400391 z M 3.3964844 19.144531 C 3.1869531 19.164406 3.0078125 19.339766 3.0078125 19.572266 L 3.0078125 20.402344 C 3.0108125 20.939344 3.2940937 21.474469 3.8710938 21.730469 L 12.091797 25.382812 C 13.944797 26.205813 16.057156 26.205813 17.910156 25.382812 L 26.130859 21.730469 C 26.707859 21.474469 26.991141 20.939344 26.994141 20.402344 L 26.994141 19.572266 C 26.994141 19.262266 26.673625 19.055641 26.390625 19.181641 L 17.910156 22.947266 C 16.057156 23.770266 13.942844 23.770266 12.089844 22.947266 L 3.6113281 19.181641 C 3.5403281 19.150141 3.4663281 19.137906 3.3964844 19.144531 z"/></svg>